<?xml version="1.0" encoding="utf-8"?>
<!-- Generator: Adobe Illustrator 27.9.0, SVG Export Plug-In . SVG Version: 6.00 Build 0)  -->
<svg version="1.1" id="Laag_1" xmlns="http://www.w3.org/2000/svg" xmlns:xlink="http://www.w3.org/1999/xlink" x="0px" y="0px"
	 viewBox="0 0 226.8 78" style="enable-background:new 0 0 226.8 78;" xml:space="preserve">
<style type="text/css">
	.st0{fill:#00AFDB;}
</style>
<g>
	<path class="st0" d="M54,31c-3.1-12.6-14.3-16.2-26.8-16.2H14.2v47.9H20V31h3.8v-8.7h5.4c5.8,0,11.3,3.1,14.1,8.7H30.8v31.7h2.6
		c11.2,0,22.1-8.3,22.1-22.9C55.6,36.6,55,33.6,54,31L54,31z"/>
	<polygon class="st0" points="84.8,31 84.8,31 90.4,15 81.9,15 75.7,31 63.3,62.8 73.2,62.8 77.4,51.8 96.8,51.8 100.9,62.8 
		111.5,62.8 99,31 	"/>
	<polygon class="st0" points="158.6,44.3 151.8,44.3 136.9,15 125.1,15 125.1,31 125.1,62.8 134.3,62.8 134.3,31 136.5,31 
		152.7,62.8 164.4,62.8 164.4,44.3 169.9,44.3 169.9,15 158.6,15 	"/>
	<path class="st0" d="M203.2,21.7c3.2,0,6.5,0.7,9.4,1.9v-8.1c-3.2-0.9-6.6-1.3-10.2-1.3c-8.4,0-17.8,3.9-17.8,14.6
		c0,7.4,4.5,11.5,9,14.3c0.2,0.1,1.8-2.4,2-2.3c5.4,2.3,11.1,4.4,11.1,9.1c0,4.3-4.9,6.2-8.5,6.2c-1,0-1.9-0.1-2.9-0.2v7.6
		c1,0.1,2.1,0.1,3.4,0.1c5.5,0,10.6-1.3,13.9-4.4V39.6c-6.1-5.4-17-5.3-17-11.3C195.6,23.1,199.9,21.7,203.2,21.7z"/>
</g>
</svg>
